<svg xmlns="http://www.w3.org/2000/svg" viewBox="0 0 660 366"><defs><style>.a,.c{fill:none;}.a,.b{stroke:#fff;}.a,.b,.c{stroke-linecap:round;stroke-linejoin:round;stroke-width:2.77px;}.b{fill:#011729;fill-opacity:0.5;}.c{stroke:#00aeef;}</style></defs><title>smart-city-graphic</title><rect class="a" x="455.04" y="82.41" width="26.71" height="60.41"/><rect class="a" x="19.78" y="249.16" width="35.46" height="72.49"/><rect class="b" x="19.78" y="264.66" width="35.46" height="56.99"/><polygon class="a" points="88.76 221.28 88.76 210.58 82.5 210.58 79.61 205.8 71.4 205.8 68.52 210.58 62.25 210.58 62.25 221.28 55.24 221.28 55.24 321.65 62.25 321.65 68.52 321.65 82.5 321.65 88.76 321.65 95.77 321.65 95.77 221.28 88.76 221.28"/><path class="a" d="M334.07,160.47a112.55,112.55,0,0,1,25,2.8v-12a124.8,124.8,0,0,0-57.91,1.9v12.21A112.17,112.17,0,0,1,334.07,160.47Z"/><path class="b" d="M293.45,155.56q-3.91,1.36-7.71,3v12.87q3.78-1.81,7.71-3.33t7.71-2.67V153.17Q297.25,154.24,293.45,155.56Z"/><path class="b" d="M285.74,171.38a112.07,112.07,0,0,0-15.41,8.94V321.65h23.12V168.05Q289.52,169.58,285.74,171.38Z"/><path class="a" d="M359.06,163.27a112.88,112.88,0,0,0-57.91,2.11q-3.92,1.2-7.71,2.67v153.6h82.13V168.4A111.32,111.32,0,0,0,359.06,163.27Z"/><line class="a" x1="3" y1="321.65" x2="19.78" y2="321.65"/><line class="a" x1="236.1" y1="336.66" x2="474.5" y2="336.66"/><line class="a" x1="3" y1="336.66" x2="103.59" y2="336.66"/><line class="a" x1="346.05" y1="321.65" x2="346.05" y2="306.88"/><circle class="a" cx="346.05" cy="295.12" r="11.46"/><path class="a" d="M551.71,35a20.37,20.37,0,0,0-20.37,20.37"/><line class="c" x1="551.71" y1="20.38" x2="551.71" y2="9.93"/><line class="c" x1="534.24" y1="25.06" x2="529.02" y2="16.01"/><line class="c" x1="521.45" y1="37.85" x2="512.4" y2="32.63"/><line class="c" x1="516.77" y1="55.33" x2="506.32" y2="55.33"/><line class="c" x1="521.45" y1="72.8" x2="512.4" y2="78.02"/><line class="c" x1="581.98" y1="72.8" x2="591.03" y2="78.02"/><line class="c" x1="586.66" y1="55.33" x2="597.11" y2="55.33"/><line class="c" x1="581.98" y1="37.85" x2="591.03" y2="32.63"/><line class="c" x1="569.19" y1="25.06" x2="574.41" y2="16.01"/><path class="c" d="M294.51,125.07a42.51,42.51,0,0,1,60.19,0"/><path class="c" d="M363.51,116.26a55,55,0,0,0-77.81,0"/><path class="c" d="M303.31,133.87a30.12,30.12,0,0,1,42.59,0"/><line class="c" x1="241.53" y1="362.67" x2="257.92" y2="346.27"/><line class="c" x1="442.68" y1="362.67" x2="459.07" y2="346.27"/><line class="c" x1="249.72" y1="354.47" x2="450.89" y2="354.47"/><path class="a" d="M233.91,321.65V245H167.86V145.29H158.1V126.41h-9.23L141.13,116V304"/><path class="b" d="M119.24,320.94a112.93,112.93,0,0,0,9.17-7.75c4.44-4,8.42-7.67,12.72-9.2V116l-7.74,10.38h-9.23v18.87H114.4v99.89L95.77,255v66.65h18.15Z"/><path class="c" d="M201.55,318.16l-.06-.06Z"/><path class="c" d="M197,314.15h0l.93.78Z"/><path class="c" d="M200.27,317c-.58-.52-1.33-1.19-2.23-1.95C198.93,315.79,199.69,316.46,200.27,317Z"/><path class="c" d="M201.45,318.06l-.2-.19Z"/><path class="c" d="M201.21,317.85l-.88-.81Z"/><polygon class="c" points="208.25 319.38 208.25 319.38 213.52 320.33 208.25 319.38"/><path class="c" d="M222.16,54.24a26.49,26.49,0,0,0-25-17.72h-.08a35.48,35.48,0,0,0-70.27-4.23c-.4,0-.81,0-1.2,0A28.65,28.65,0,0,0,98.2,52.6c-.55,0-1.11-.08-1.67-.08a18.51,18.51,0,0,0,0,37H197"/><rect class="a" x="250.3" y="62.01" width="11.26" height="259.64"/><rect class="b" x="196.99" y="62.01" width="11.26" height="182.97"/><polygon class="a" points="208.25 54.24 208.25 244.98 233.91 244.98 233.91 321.65 250.3 321.65 250.3 54.24 208.25 54.24"/><polygon class="c" points="415.83 321.65 415.83 321.65 455.04 321.65 455.04 321.65 415.83 321.65"/><polygon class="b" points="455.04 142.82 455.04 198.24 455.04 198.24 455.04 82.41 415.83 97.14 415.83 157.55 455.04 142.82"/><polygon class="b" points="455.04 198.24 455.04 142.82 399.97 163.52 399.97 218.94 455.04 198.24"/><line class="a" x1="604.01" y1="336.66" x2="657" y2="336.66"/><line class="a" x1="644.35" y1="321.65" x2="657" y2="321.65"/><polygon class="a" points="492.56 198.24 492.56 142.82 455.04 142.82 455.04 321.65 455.06 321.65 455.06 198.24 492.56 198.24"/><circle class="a" cx="613.83" cy="295.12" r="11.46"/><path class="a" d="M474.5,295.27a5,5,0,0,1,5-5h23.84v-92H455.06V321.65H474.5Z"/><path class="b" d="M613.83,283.67a11.4,11.4,0,0,1,7,2.41v-24l-29.78-11.2v65.64L601,321a5,5,0,0,1,1.07.66h18.75V304.17a11.45,11.45,0,1,1-7-20.5Z"/><path class="a" d="M591.06,209.4V316.55L601,321a5,5,0,0,1,1.07.66h42.26V229.44Z"/><path class="c" d="M551.71,28.48a26.83,26.83,0,0,0-19.87,44.87,24.87,24.87,0,0,1,6.59,16,2.77,2.77,0,0,1,1.32-.35h23.93a2.77,2.77,0,0,1,1.32.34,23.9,23.9,0,0,1,6.33-15.67,26.83,26.83,0,0,0-19.62-45.15Z"/><path class="a" d="M537,97.86l-12.24-4.6V229.68"/><path class="a" d="M524.72,261.87v28.35h30.62a16.27,16.27,0,0,1,13.3,6.9l9.37,13.3V113.3l-15.34-5.77"/><rect class="c" x="536.95" y="88.97" width="29.52" height="6" rx="2.8" ry="2.8"/><path class="c" d="M122.22,345.45A12.53,12.53,0,1,1,134.76,358a12.55,12.55,0,0,1-12.53-12.53Z"/><path class="c" d="M139.62,345.45a4.87,4.87,0,1,1-4.87-4.87,4.88,4.88,0,0,1,4.87,4.87Z"/><path class="c" d="M196,346.69a12.53,12.53,0,1,1,13.71,11.24A12.55,12.55,0,0,1,196,346.69Z"/><path class="c" d="M213.34,345A4.87,4.87,0,1,1,208,340.6a4.88,4.88,0,0,1,5.33,4.37Z"/><path class="c" d="M232.17,324.82a4.48,4.48,0,0,0-2.91-1.63l-27.71-5s-15.63-14.95-24.91-14.95H145.4c-6.06,0-11.12,4.61-17,10a112.93,112.93,0,0,1-9.17,7.75l-12.53,1.67a4.49,4.49,0,0,0-3.12,4.27v14.35a4.49,4.49,0,0,0,4.49,4.49h14.16c0-.09,0-.18,0-.27a12.53,12.53,0,1,1,25.06,0c0,.09,0,.18,0,.27H196a12.52,12.52,0,1,1,25,0h5.72c5.61,0,8.34-2.42,9-4.69C237.49,335.28,232.25,324.92,232.17,324.82Z"/><line class="c" x1="170.75" y1="281.93" x2="200.04" y2="272.59"/><line class="c" x1="125.55" y1="272.54" x2="154.9" y2="281.69"/><circle class="c" cx="117.62" cy="270.07" r="8.31"/><circle class="c" cx="162.79" cy="284.31" r="8.31"/><circle class="c" cx="207.95" cy="270.07" r="8.31"/><polygon class="a" points="591.06 316.55 591.06 142.82 578.01 142.82 578.01 310.42 568.63 297.12 578.34 310.89 591.06 316.55"/><path class="a" d="M524.72,229.68V142.82H511.66V290.22h13.06V261.87"/><path class="c" d="M508.48,345.45a4.87,4.87,0,1,1-4.87-4.87,4.88,4.88,0,0,1,4.87,4.87Z"/><path class="c" d="M601,321l-22.68-10.1-9.7-13.77a16.27,16.27,0,0,0-13.3-6.9H479.55a5,5,0,0,0-5,5V340.4a5,5,0,0,0,5,5h11.53a12.53,12.53,0,1,1,25.06,0h48.68a12.53,12.53,0,0,1,25-1.24c0,.41.06.83.06,1.24H599a5,5,0,0,0,5-5V325.6A5,5,0,0,0,601,321Z"/><path class="c" d="M582.19,345a4.87,4.87,0,1,1-5.33-4.37,4.88,4.88,0,0,1,5.33,4.37Z"/><path class="c" d="M491.08,345.45A12.53,12.53,0,1,1,503.61,358a12.55,12.55,0,0,1-12.53-12.53Z"/><path class="c" d="M564.88,346.69a12.53,12.53,0,1,1,13.71,11.24,12.55,12.55,0,0,1-13.71-11.24Z"/><line class="a" x1="613.83" y1="321.65" x2="613.83" y2="306.75"/><path class="a" d="M426.83,289.08A9.28,9.28,0,0,1,441,281.17c0-.46.07-.92.07-1.38a16.4,16.4,0,1,0-11.66,15.69A9.25,9.25,0,0,1,426.83,289.08Z"/><circle class="a" cx="436.12" cy="289.08" r="9.29"/><path class="b" d="M384.13,224.9v96.75h70.93V198.24Zm52,73.47a9.26,9.26,0,0,1-6.74-2.91h0a16.39,16.39,0,1,1,11.66-15.69c0,.47,0,.93-.07,1.38a9.29,9.29,0,0,1-4.86,17.2Z"/><line class="a" x1="424.66" y1="321.65" x2="424.66" y2="296.17"/><path class="a" d="M424.66,303.22h-6.35a5.11,5.11,0,0,1-5.11-5.11v-6"/><path class="a" d="M424.66,308.67H431a5.11,5.11,0,0,0,5.11-5.11v-5.19"/><path class="c" d="M558.65,245.36a20.59,20.59,0,1,0-41.18,0c0,11.37,20.59,33,20.59,33S558.65,256.73,558.65,245.36Zm-28.36,0a7.77,7.77,0,1,1,7.77,7.77A7.78,7.78,0,0,1,530.29,245.36Z"/><rect class="c" x="536.95" y="100.96" width="29.52" height="6" rx="2.8" ry="2.8"/><rect class="c" x="536.95" y="94.96" width="29.52" height="6" rx="2.8" ry="2.8"/><path class="c" d="M558.55,113.42H544.88a2.43,2.43,0,0,1-2.24-1.48l-2.12-5h22.39l-2.12,5A2.43,2.43,0,0,1,558.55,113.42Z"/><line class="b" x1="375.58" y1="321.65" x2="384.13" y2="321.65"/><line class="a" x1="261.56" y1="321.65" x2="270.33" y2="321.65"/></svg>